<svg width="20" height="20" viewBox="0 0 20 20" fill="none" xmlns="http://www.w3.org/2000/svg">
<g id="material-symbols:category-outline-rounded">
<path id="Vector" d="M6.1875 7.89584L9.29167 2.83334C9.375 2.69445 9.47917 2.59362 9.60417 2.53084C9.72917 2.46806 9.86111 2.43695 10 2.43751C10.1389 2.43806 10.2708 2.46945 10.3958 2.53167C10.5208 2.5939 10.625 2.69445 10.7083 2.83334L13.8125 7.89584C13.8958 8.03473 13.9375 8.18056 13.9375 8.33334C13.9375 8.48612 13.9028 8.62501 13.8333 8.75001C13.7639 8.87501 13.6667 8.97584 13.5417 9.05251C13.4167 9.12917 13.2708 9.16723 13.1042 9.16667H6.89583C6.72917 9.16667 6.58333 9.12862 6.45833 9.05251C6.33333 8.9764 6.23611 8.87556 6.16667 8.75001C6.09722 8.62445 6.0625 8.48556 6.0625 8.33334C6.0625 8.18112 6.10417 8.03529 6.1875 7.89584ZM14.5833 18.3333C13.5417 18.3333 12.6564 17.9689 11.9275 17.24C11.1986 16.5111 10.8339 15.6256 10.8333 14.5833C10.8328 13.5411 11.1975 12.6558 11.9275 11.9275C12.6575 11.1992 13.5428 10.8345 14.5833 10.8333C15.6239 10.8322 16.5094 11.197 17.24 11.9275C17.9706 12.6581 18.335 13.5433 18.3333 14.5833C18.3317 15.6233 17.9672 16.5089 17.24 17.24C16.5128 17.9711 15.6272 18.3356 14.5833 18.3333ZM2.5 17.0833V12.0833C2.5 11.8472 2.58 11.6495 2.74 11.49C2.9 11.3306 3.09778 11.2506 3.33333 11.25H8.33333C8.56944 11.25 8.7675 11.33 8.9275 11.49C9.0875 11.65 9.16722 11.8478 9.16667 12.0833V17.0833C9.16667 17.3195 9.08667 17.5175 8.92667 17.6775C8.76667 17.8375 8.56889 17.9172 8.33333 17.9167H3.33333C3.09722 17.9167 2.89944 17.8367 2.74 17.6767C2.58056 17.5167 2.50056 17.3189 2.5 17.0833ZM14.5833 16.6667C15.1667 16.6667 15.6597 16.4653 16.0625 16.0625C16.4653 15.6597 16.6667 15.1667 16.6667 14.5833C16.6667 14 16.4653 13.507 16.0625 13.1042C15.6597 12.7014 15.1667 12.5 14.5833 12.5C14 12.5 13.5069 12.7014 13.1042 13.1042C12.7014 13.507 12.5 14 12.5 14.5833C12.5 15.1667 12.7014 15.6597 13.1042 16.0625C13.5069 16.4653 14 16.6667 14.5833 16.6667ZM4.16667 16.25H7.5V12.9167H4.16667V16.25ZM8.375 7.50001H11.625L10 4.87501L8.375 7.50001Z" fill="#5D5D5D"/>
</g>
</svg>
