<svg width="16" height="17" viewBox="0 0 16 17" fill="none" xmlns="http://www.w3.org/2000/svg">
<g id="material-symbols:rewarded-ads-outline">
<path id="Vector" d="M8 7.83333C8.36667 7.83333 8.68067 7.70289 8.942 7.442C9.20333 7.18111 9.33378 6.86711 9.33333 6.5C9.33289 6.13289 9.20244 5.81911 8.942 5.55867C8.68156 5.29822 8.36756 5.16756 8 5.16667C7.63244 5.16578 7.31867 5.29644 7.05867 5.55867C6.79867 5.82089 6.668 6.13467 6.66667 6.5C6.66533 6.86533 6.796 7.17933 7.05867 7.442C7.32133 7.70467 7.63511 7.83511 8 7.83333ZM4.66667 14.5V13.1667H7.33333V11.1C6.78889 10.9778 6.30289 10.7473 5.87533 10.4087C5.44778 10.07 5.13378 9.64489 4.93333 9.13333C4.1 9.03333 3.40289 8.66956 2.842 8.042C2.28111 7.41444 2.00044 6.67822 2 5.83333V5.16667C2 4.8 2.13067 4.48622 2.392 4.22533C2.65333 3.96444 2.96711 3.83378 3.33333 3.83333H4.66667V2.5H11.3333V3.83333H12.6667C13.0333 3.83333 13.3473 3.964 13.6087 4.22533C13.87 4.48667 14.0004 4.80044 14 5.16667V5.83333C14 6.67778 13.7193 7.414 13.158 8.042C12.5967 8.67 11.8996 9.03378 11.0667 9.13333C10.8667 9.64444 10.5529 10.0696 10.1253 10.4087C9.69778 10.7478 9.21156 10.9782 8.66667 11.1V13.1667H11.3333V14.5H4.66667ZM4.66667 7.7V5.16667H3.33333V5.83333C3.33333 6.25556 3.45556 6.63622 3.7 6.97533C3.94444 7.31445 4.26667 7.556 4.66667 7.7ZM8 9.83333C8.55556 9.83333 9.02778 9.63889 9.41667 9.25C9.80556 8.86111 10 8.38889 10 7.83333V3.83333H6V7.83333C6 8.38889 6.19444 8.86111 6.58333 9.25C6.97222 9.63889 7.44444 9.83333 8 9.83333ZM11.3333 7.7C11.7333 7.55556 12.0556 7.31378 12.3 6.97467C12.5444 6.63556 12.6667 6.25511 12.6667 5.83333V5.16667H11.3333V7.7Z" fill="white"/>
</g>
</svg>
