<svg width="16" height="17" viewBox="0 0 16 17" fill="none" xmlns="http://www.w3.org/2000/svg">
<g id="material-symbols:group-outline-rounded">
<path id="Vector" d="M0.666626 11.9665C0.666626 11.5887 0.763959 11.2416 0.958626 10.9252C1.15329 10.6087 1.41151 10.367 1.73329 10.1999C2.42218 9.85541 3.12218 9.59719 3.83329 9.42519C4.5444 9.25319 5.26663 9.16697 5.99996 9.16652C6.73329 9.16608 7.45551 9.2523 8.16663 9.42519C8.87774 9.59808 9.57774 9.8563 10.2666 10.1999C10.5888 10.3665 10.8473 10.6083 11.042 10.9252C11.2366 11.2421 11.3337 11.5892 11.3333 11.9665V12.4999C11.3333 12.8665 11.2028 13.1805 10.942 13.4419C10.6811 13.7032 10.3671 13.8336 9.99996 13.8332H1.99996C1.63329 13.8332 1.31951 13.7027 1.05863 13.4419C0.797737 13.181 0.66707 12.867 0.666626 12.4999V11.9665ZM14 13.8332H12.3C12.4222 13.6332 12.514 13.4194 12.5753 13.1919C12.6366 12.9643 12.6671 12.7336 12.6666 12.4999V11.8332C12.6666 11.3443 12.5306 10.8747 12.2586 10.4245C11.9866 9.9743 11.6004 9.5883 11.1 9.26652C11.6666 9.33319 12.2 9.44719 12.7 9.60852C13.2 9.76985 13.6666 9.96697 14.1 10.1999C14.5 10.4221 14.8055 10.6692 15.0166 10.9412C15.2277 11.2132 15.3333 11.5105 15.3333 11.8332V12.4999C15.3333 12.8665 15.2028 13.1805 14.942 13.4419C14.6811 13.7032 14.3671 13.8336 14 13.8332ZM5.99996 8.49985C5.26663 8.49985 4.63885 8.23874 4.11663 7.71652C3.5944 7.1943 3.33329 6.56652 3.33329 5.83319C3.33329 5.09985 3.5944 4.47208 4.11663 3.94985C4.63885 3.42763 5.26663 3.16652 5.99996 3.16652C6.73329 3.16652 7.36107 3.42763 7.88329 3.94985C8.40552 4.47208 8.66663 5.09985 8.66663 5.83319C8.66663 6.56652 8.40552 7.1943 7.88329 7.71652C7.36107 8.23874 6.73329 8.49985 5.99996 8.49985ZM12.6666 5.83319C12.6666 6.56652 12.4055 7.1943 11.8833 7.71652C11.3611 8.23874 10.7333 8.49985 9.99996 8.49985C9.87774 8.49985 9.72218 8.48608 9.53329 8.45852C9.3444 8.43097 9.18885 8.4003 9.06663 8.36652C9.36663 8.01097 9.59729 7.61652 9.75863 7.18319C9.91996 6.74985 10.0004 6.29985 9.99996 5.83319C9.99952 5.36652 9.91907 4.91652 9.75863 4.48319C9.59818 4.04985 9.36752 3.65541 9.06663 3.29985C9.22218 3.2443 9.37774 3.20808 9.53329 3.19119C9.68885 3.1743 9.8444 3.16608 9.99996 3.16652C10.7333 3.16652 11.3611 3.42763 11.8833 3.94985C12.4055 4.47208 12.6666 5.09985 12.6666 5.83319ZM1.99996 12.4999H9.99996V11.9665C9.99996 11.8443 9.96951 11.7332 9.90863 11.6332C9.84774 11.5332 9.76707 11.4554 9.66663 11.3999C9.06663 11.0999 8.46107 10.875 7.84996 10.7252C7.23885 10.5754 6.62218 10.5003 5.99996 10.4999C5.37774 10.4994 4.76107 10.5745 4.14996 10.7252C3.53885 10.8759 2.93329 11.1007 2.33329 11.3999C2.23329 11.4554 2.15263 11.5332 2.09129 11.6332C2.02996 11.7332 1.99951 11.8443 1.99996 11.9665V12.4999ZM5.99996 7.16652C6.36663 7.16652 6.68063 7.03608 6.94196 6.77519C7.20329 6.5143 7.33374 6.2003 7.33329 5.83319C7.33285 5.46608 7.2024 5.1523 6.94196 4.89185C6.68152 4.63141 6.36752 4.50074 5.99996 4.49985C5.6324 4.49897 5.31863 4.62963 5.05863 4.89185C4.79863 5.15408 4.66796 5.46785 4.66663 5.83319C4.66529 6.19852 4.79596 6.51252 5.05863 6.77519C5.32129 7.03785 5.63507 7.1683 5.99996 7.16652Z" fill="#878787"/>
</g>
</svg>
